#N canvas 620 60 660 531 8;
#X obj 49 464 dac~;
#X obj 34 412 *~;
#X obj 112 351 line~;
#X obj 114 327 \$1 20;
#X obj 180 215 hsl 90 15 0 1 0 0 empty empty empty -2 -8 0 10 -262144
-1 -1 0 1;
#X obj 24 196 noise~;
#X obj 16 269 hip~;
#X obj 85 205 hsl 85 10 0 8000 0 0 empty empty empty -2 -8 0 10 -262144
-1 -1 8400 1;
#X floatatom 69 228 5 0 0 0 - - -;
#X obj 84 61 ctlin 1;
#X obj 249 34 ctlin 2;
#X floatatom 90 108 5 0 0 0 - - -;
#X floatatom 249 54 5 0 0 0 - - -;
#X obj 423 336 writesf~;
#X msg 519 333 stop;
#X floatatom 168 88 5 0 0 0 - - -;
#X obj 90 127 / 127;
#X floatatom 90 147 5 0 0 0 - - -;
#X obj 249 73 / 127;
#X floatatom 249 93 5 0 0 0 - - -;
#X floatatom 249 132 5 0 0 0 - - -;
#X obj 123 164 * 8000;
#X floatatom 91 184 5 0 0 0 - - -;
#X obj 249 112 / 3.5;
#X text 12 14 potentiometer \, controls the high pass filter;
#X text 307 20 potentiometer \, controls volume;
#X text 357 222 this one click on it to create a wav file with everything
you do until you click stoo;
#X msg 399 255 open noise.wav \, start;
#X connect 1 0 0 0;
#X connect 1 0 0 1;
#X connect 1 0 13 0;
#X connect 2 0 1 1;
#X connect 3 0 2 0;
#X connect 4 0 3 0;
#X connect 5 0 6 0;
#X connect 6 0 1 0;
#X connect 7 0 8 0;
#X connect 8 0 6 1;
#X connect 9 0 11 0;
#X connect 9 1 15 0;
#X connect 10 0 12 0;
#X connect 11 0 16 0;
#X connect 12 0 18 0;
#X connect 14 0 13 0;
#X connect 16 0 17 0;
#X connect 17 0 21 0;
#X connect 18 0 19 0;
#X connect 19 0 23 0;
#X connect 20 0 4 0;
#X connect 21 0 22 0;
#X connect 22 0 7 0;
#X connect 23 0 20 0;
#X connect 27 0 13 0;
